<svg width="120" height="120" viewBox="0 0 120 120" fill="none" xmlns="http://www.w3.org/2000/svg">
<path d="M69.4821 75.7506C69.4497 75.3829 69.345 75.0153 69.1621 74.6649L46.1126 31.1715C45.4326 29.8934 43.8973 29.2915 42.505 29.7563C41.1126 30.2287 40.2802 31.6268 40.545 33.0515L49.5259 81.2801C49.5964 81.663 49.745 82.0058 49.9488 82.3201C50.0345 82.7315 50.1412 83.141 50.2821 83.5525C51.7297 87.6801 55.6878 90.461 60.1278 90.461C61.2745 90.461 62.4154 90.2763 63.5069 89.9049C66.1354 89.021 68.2573 87.1829 69.4783 84.7277C70.7031 82.2706 70.8764 79.4991 69.9754 76.9144C69.8383 76.5087 69.6688 76.1239 69.4821 75.7506ZM60.1316 32.9163C58.4878 32.9163 57.1583 34.2248 57.1583 35.8363C57.1583 37.4477 58.4878 38.7563 60.1316 38.7563C83.8345 38.7563 103.113 57.7029 103.113 80.9887C103.113 82.6001 104.448 83.9087 106.088 83.9087C107.734 83.9087 109.065 82.6001 109.065 80.9887C109.063 54.4782 87.1126 32.9163 60.1316 32.9163ZM29.3811 43.5906C17.8269 52.7715 11.2002 66.4001 11.2002 80.9887C11.2002 82.6001 12.5297 83.9087 14.1735 83.9087C15.8211 83.9087 17.1507 82.6001 17.1507 80.9887C17.1507 68.1753 22.9716 56.2001 33.124 48.1353C34.404 47.1201 34.5983 45.2801 33.5659 44.0248C32.5354 42.7715 30.6631 42.5753 29.3811 43.5906Z" fill="#0069E1"/>
</svg>
