<?xml version="1.0" encoding="UTF-8" standalone="no"?><!DOCTYPE svg PUBLIC "-//W3C//DTD SVG 1.1//EN" "http://www.w3.org/Graphics/SVG/1.1/DTD/svg11.dtd"><svg width="100%" height="100%" viewBox="0 0 63 57" version="1.1" xmlns="http://www.w3.org/2000/svg" xmlns:xlink="http://www.w3.org/1999/xlink" xml:space="preserve" xmlns:serif="http://www.serif.com/" style="fill-rule:evenodd;clip-rule:evenodd;stroke-linejoin:round;stroke-miterlimit:2;"><g><rect x="29.748" y="3.887" width="2.866" height="6.115" style="fill:#dbdfe3;"/><rect x="26.69" y="7.549" width="8.981" height="8.694" style="fill:#0069e1;"/><rect x="31.191" y="7.549" width="4.481" height="8.694" style="fill:#004ea7;"/><path d="M45.847,26.644c-0.358,-7.78 -6.799,-13.999 -14.666,-13.999c-7.867,0 -14.308,6.219 -14.666,13.999l29.332,0Z" style="fill:#f1f3f4;fill-rule:nonzero;"/><path d="M31.178,26.644l14.669,0c-0.358,-7.78 -6.799,-13.999 -14.666,-13.999l-0.003,0l0,13.999Z" style="fill:#dbdfe3;fill-rule:nonzero;"/><rect x="14.46" y="25.289" width="33.441" height="8.568" style="fill:#318eff;"/><rect x="31.178" y="25.289" width="16.724" height="8.568" style="fill:#0069e1;"/><path d="M9.038,50.322l44.286,0l0,-16.466l2.317,0l0,-2.866l-48.92,0l0,2.866l2.317,0l0,16.466Z" style="fill:#f1f3f4;fill-rule:nonzero;"/><path d="M53.324,50.322l0,-16.466l2.317,0l0,-2.866l-24.46,0l0,19.332l22.143,0Z" style="fill:#dbdfe3;fill-rule:nonzero;"/><rect x="14.874" y="36.341" width="2.866" height="4.077" style="fill:#fff;"/><rect x="14.874" y="43.379" width="2.866" height="4.077" style="fill:#fff;"/><rect x="44.622" y="43.379" width="2.866" height="4.077" style="fill:#f1f3f4;"/><rect x="44.622" y="36.341" width="2.866" height="4.077" style="fill:#f1f3f4;"/><path d="M37.622,50.322l0,-9.602l-6.441,-3.201l-6.441,3.201l0,9.602l12.882,0Z" style="fill:#8f8e92;fill-rule:nonzero;"/><path d="M37.622,50.322l0,-9.602l-6.441,-3.201l-0.003,0.002l0,12.801l6.444,0Z" style="fill:#57575a;fill-rule:nonzero;"/><path d="M26.173,50.322l0,-8.714l5.008,-2.489l5.008,2.489l0,8.714l2.867,0l0,-10.49l-7.875,-3.913l-7.875,3.913l0,10.49l2.867,0Z" style="fill:#fff;fill-rule:nonzero;"/><path d="M36.189,41.608l0,8.714l2.867,0l0,-10.49l-7.875,-3.913l0,3.2l5.008,2.489Z" style="fill:#f1f3f4;fill-rule:nonzero;"/><rect x="6.721" y="49.94" width="48.92" height="2.866" style="fill:#318eff;"/><rect x="31.181" y="49.94" width="24.46" height="2.866" style="fill:#0069e1;"/></g></svg>