<?xml version="1.0" encoding="UTF-8" standalone="no"?><!DOCTYPE svg PUBLIC "-//W3C//DTD SVG 1.1//EN" "http://www.w3.org/Graphics/SVG/1.1/DTD/svg11.dtd"><svg width="100%" height="100%" viewBox="0 0 63 57" version="1.1" xmlns="http://www.w3.org/2000/svg" xmlns:xlink="http://www.w3.org/1999/xlink" xml:space="preserve" xmlns:serif="http://www.serif.com/" style="fill-rule:evenodd;clip-rule:evenodd;stroke-linejoin:round;stroke-miterlimit:2;"><g><path d="M53.794,32.245l0,-7.797l-3.119,0l0,7.797l3.119,0Z" style="fill:#c7cac7;"/><path d="M8.569,38.121l0,-19.549c0,-1.062 0.86,-1.922 1.921,-1.922l38.263,0c1.062,0 1.922,0.86 1.922,1.922l0,19.549c0,1.062 -0.86,1.922 -1.922,1.922l-38.263,0c-1.061,0 -1.921,-0.86 -1.921,-1.922Z" style="fill:#e7eced;fill-rule:nonzero;"/><path d="M38.979,16.65l-28.489,0c-1.061,0 -1.921,0.86 -1.921,1.922l0,19.549c0,1.062 0.86,1.922 1.921,1.922l28.489,0l0,-23.393Z" style="fill:#7fc1d3;fill-rule:nonzero;"/><clipPath id="_clip1"><path d="M38.979,16.65l-28.489,0c-1.061,0 -1.921,0.86 -1.921,1.922l0,19.549c0,1.062 0.86,1.922 1.921,1.922l28.489,0l0,-23.393Z" clip-rule="nonzero"/></clipPath><g clip-path="url(#_clip1)"><rect x="0" y="-2.153" width="62.362" height="56.693" style="fill:#0069e1;"/></g></g></svg>