<?xml version="1.0" encoding="UTF-8" standalone="no"?><!DOCTYPE svg PUBLIC "-//W3C//DTD SVG 1.1//EN" "http://www.w3.org/Graphics/SVG/1.1/DTD/svg11.dtd"><svg width="100%" height="100%" viewBox="0 0 63 57" version="1.1" xmlns="http://www.w3.org/2000/svg" xmlns:xlink="http://www.w3.org/1999/xlink" xml:space="preserve" xmlns:serif="http://www.serif.com/" style="fill-rule:evenodd;clip-rule:evenodd;stroke-linejoin:round;stroke-miterlimit:2;"><g><path d="M50.249,26.213l-1.149,-4.594c0.314,-0.066 0.55,-0.345 0.55,-0.678l0,-0.741c0,-1.608 -1.308,-2.916 -2.916,-2.916l-5.231,0l0,-1.528c0,-0.791 -0.643,-1.435 -1.435,-1.435l-26.661,0c-0.792,0 -1.435,0.644 -1.435,1.435l0,12.591c0,0.383 0.31,0.694 0.694,0.694c0.383,0 0.694,-0.311 0.694,-0.694l0,-12.591c0,-0.025 0.021,-0.046 0.047,-0.046l26.661,0c0.026,0 0.047,0.021 0.047,0.046l0,12.591c0,0.383 0.31,0.694 0.694,0.694c0.383,0 0.694,-0.311 0.694,-0.694l0,-0.787l8.191,0c0.001,0 0.001,0 0.002,0c0,0 0.001,0 0.002,0c1.007,0 1.863,0.662 2.157,1.574l-2.159,0c-0.383,0 -0.694,0.31 -0.694,0.694l0,1.481c0,1.2 0.976,2.176 2.175,2.176l0.787,0l0,3.055l-1.815,0c-0.597,-1.722 -2.234,-2.963 -4.156,-2.963c-1.922,0 -3.559,1.241 -4.156,2.963l-0.334,0l0,-5.231c0,-0.383 -0.311,-0.694 -0.694,-0.694c-0.384,0 -0.695,0.31 -0.695,0.694l0,5.23l-14.405,0c-0.596,-1.722 -2.233,-2.962 -4.156,-2.962c-1.922,0 -3.559,1.24 -4.155,2.962l-3.991,0c-0.026,0 -0.047,-0.02 -0.047,-0.046l0,-1.527l3.009,0c0.383,0 0.694,-0.311 0.694,-0.695c0,-0.383 -0.311,-0.694 -0.694,-0.694l-6.665,0c-0.384,0 -0.695,0.311 -0.695,0.694c0,0.384 0.311,0.695 0.695,0.695l2.268,0l0,1.527c0,0.791 0.643,1.435 1.435,1.435l3.75,0c0,0.015 -0.001,0.031 -0.001,0.046c0,2.425 1.973,4.398 4.397,4.398c2.425,0 4.398,-1.973 4.398,-4.398c0,-0.015 -0.001,-0.031 -0.002,-0.046l15.648,0c0,0.015 -0.001,0.031 -0.001,0.046c0,2.425 1.973,4.398 4.397,4.398c2.425,0 4.397,-1.973 4.397,-4.398c0,-0.015 -0.001,-0.031 -0.001,-0.046l2.27,0c0.383,0 0.694,-0.311 0.694,-0.694l0,-7.406c0,-1.829 -1.349,-3.348 -3.104,-3.615Zm-8.746,-7.541l5.231,0c0.842,0 1.527,0.686 1.527,1.528l0,0.046l-6.758,0l0,-1.574Zm0,7.499l0,-4.536l6.17,0l1.134,4.536l-7.304,0Zm-19.95,14.812c-1.659,0 -3.008,-1.349 -3.008,-3.009c0,-1.659 1.349,-3.008 3.008,-3.008c1.659,0 3.009,1.349 3.009,3.008c0,1.66 -1.35,3.009 -3.009,3.009Zm24.44,0c-1.659,0 -3.008,-1.349 -3.008,-3.009c0,-1.659 1.349,-3.008 3.008,-3.008c1.659,0 3.009,1.349 3.009,3.008c0,1.66 -1.35,3.009 -3.009,3.009Zm5.971,-8.887l-0.786,0c-0.434,0 -0.787,-0.353 -0.787,-0.787l0,-0.787l1.573,0l0,1.574l0,0Zm-30.411,4.444c-0.791,0 -1.435,0.643 -1.435,1.434c0,0.792 0.644,1.435 1.435,1.435c0.792,0 1.435,-0.643 1.435,-1.435c0,-0.791 -0.643,-1.434 -1.435,-1.434Zm24.44,0c-0.791,0 -1.435,0.643 -1.435,1.434c0,0.792 0.644,1.435 1.435,1.435c0.792,0 1.435,-0.643 1.435,-1.435c0,-0.791 -0.643,-1.434 -1.435,-1.434Zm-8.146,-2.963l-10.369,0c-0.383,0 -0.694,0.311 -0.694,0.695c0,0.383 0.311,0.694 0.694,0.694l10.369,0c0.383,0 0.694,-0.311 0.694,-0.694c0,-0.384 -0.311,-0.695 -0.694,-0.695Zm-17.775,-2.962l-8.887,0c-0.384,0 -0.695,0.311 -0.695,0.694c0,0.384 0.311,0.694 0.695,0.694l8.887,0c0.383,0 0.694,-0.31 0.694,-0.694c0,-0.383 -0.311,-0.694 -0.694,-0.694Zm13.081,-9.425c-0.271,-0.271 -0.71,-0.271 -0.982,0l-6.174,6.175l-3.212,-3.212c-0.271,-0.272 -0.711,-0.272 -0.982,0c-0.271,0.271 -0.271,0.71 0,0.981l3.703,3.703c0.136,0.136 0.313,0.204 0.491,0.204c0.178,0 0.355,-0.068 0.491,-0.204l6.665,-6.665c0.271,-0.271 0.271,-0.711 0,-0.982Z" style="fill-rule:nonzero;"/><clipPath id="_clip1"><path d="M50.249,26.213l-1.149,-4.594c0.314,-0.066 0.55,-0.345 0.55,-0.678l0,-0.741c0,-1.608 -1.308,-2.916 -2.916,-2.916l-5.231,0l0,-1.528c0,-0.791 -0.643,-1.435 -1.435,-1.435l-26.661,0c-0.792,0 -1.435,0.644 -1.435,1.435l0,12.591c0,0.383 0.31,0.694 0.694,0.694c0.383,0 0.694,-0.311 0.694,-0.694l0,-12.591c0,-0.025 0.021,-0.046 0.047,-0.046l26.661,0c0.026,0 0.047,0.021 0.047,0.046l0,12.591c0,0.383 0.31,0.694 0.694,0.694c0.383,0 0.694,-0.311 0.694,-0.694l0,-0.787l8.191,0c0.001,0 0.001,0 0.002,0c0,0 0.001,0 0.002,0c1.007,0 1.863,0.662 2.157,1.574l-2.159,0c-0.383,0 -0.694,0.31 -0.694,0.694l0,1.481c0,1.2 0.976,2.176 2.175,2.176l0.787,0l0,3.055l-1.815,0c-0.597,-1.722 -2.234,-2.963 -4.156,-2.963c-1.922,0 -3.559,1.241 -4.156,2.963l-0.334,0l0,-5.231c0,-0.383 -0.311,-0.694 -0.694,-0.694c-0.384,0 -0.695,0.31 -0.695,0.694l0,5.23l-14.405,0c-0.596,-1.722 -2.233,-2.962 -4.156,-2.962c-1.922,0 -3.559,1.24 -4.155,2.962l-3.991,0c-0.026,0 -0.047,-0.02 -0.047,-0.046l0,-1.527l3.009,0c0.383,0 0.694,-0.311 0.694,-0.695c0,-0.383 -0.311,-0.694 -0.694,-0.694l-6.665,0c-0.384,0 -0.695,0.311 -0.695,0.694c0,0.384 0.311,0.695 0.695,0.695l2.268,0l0,1.527c0,0.791 0.643,1.435 1.435,1.435l3.75,0c0,0.015 -0.001,0.031 -0.001,0.046c0,2.425 1.973,4.398 4.397,4.398c2.425,0 4.398,-1.973 4.398,-4.398c0,-0.015 -0.001,-0.031 -0.002,-0.046l15.648,0c0,0.015 -0.001,0.031 -0.001,0.046c0,2.425 1.973,4.398 4.397,4.398c2.425,0 4.397,-1.973 4.397,-4.398c0,-0.015 -0.001,-0.031 -0.001,-0.046l2.27,0c0.383,0 0.694,-0.311 0.694,-0.694l0,-7.406c0,-1.829 -1.349,-3.348 -3.104,-3.615Zm-8.746,-7.541l5.231,0c0.842,0 1.527,0.686 1.527,1.528l0,0.046l-6.758,0l0,-1.574Zm0,7.499l0,-4.536l6.17,0l1.134,4.536l-7.304,0Zm-19.95,14.812c-1.659,0 -3.008,-1.349 -3.008,-3.009c0,-1.659 1.349,-3.008 3.008,-3.008c1.659,0 3.009,1.349 3.009,3.008c0,1.66 -1.35,3.009 -3.009,3.009Zm24.44,0c-1.659,0 -3.008,-1.349 -3.008,-3.009c0,-1.659 1.349,-3.008 3.008,-3.008c1.659,0 3.009,1.349 3.009,3.008c0,1.66 -1.35,3.009 -3.009,3.009Zm5.971,-8.887l-0.786,0c-0.434,0 -0.787,-0.353 -0.787,-0.787l0,-0.787l1.573,0l0,1.574l0,0Zm-30.411,4.444c-0.791,0 -1.435,0.643 -1.435,1.434c0,0.792 0.644,1.435 1.435,1.435c0.792,0 1.435,-0.643 1.435,-1.435c0,-0.791 -0.643,-1.434 -1.435,-1.434Zm24.44,0c-0.791,0 -1.435,0.643 -1.435,1.434c0,0.792 0.644,1.435 1.435,1.435c0.792,0 1.435,-0.643 1.435,-1.435c0,-0.791 -0.643,-1.434 -1.435,-1.434Zm-8.146,-2.963l-10.369,0c-0.383,0 -0.694,0.311 -0.694,0.695c0,0.383 0.311,0.694 0.694,0.694l10.369,0c0.383,0 0.694,-0.311 0.694,-0.694c0,-0.384 -0.311,-0.695 -0.694,-0.695Zm-17.775,-2.962l-8.887,0c-0.384,0 -0.695,0.311 -0.695,0.694c0,0.384 0.311,0.694 0.695,0.694l8.887,0c0.383,0 0.694,-0.31 0.694,-0.694c0,-0.383 -0.311,-0.694 -0.694,-0.694Zm13.081,-9.425c-0.271,-0.271 -0.71,-0.271 -0.982,0l-6.174,6.175l-3.212,-3.212c-0.271,-0.272 -0.711,-0.272 -0.982,0c-0.271,0.271 -0.271,0.71 0,0.981l3.703,3.703c0.136,0.136 0.313,0.204 0.491,0.204c0.178,0 0.355,-0.068 0.491,-0.204l6.665,-6.665c0.271,-0.271 0.271,-0.711 0,-0.982Z" clip-rule="nonzero"/></clipPath><g clip-path="url(#_clip1)"><rect x="0" y="-5.19" width="62.362" height="56.693" style="fill:#0069e1;"/></g></g></svg>