<?xml version="1.0" encoding="UTF-8" standalone="no"?><!DOCTYPE svg PUBLIC "-//W3C//DTD SVG 1.1//EN" "http://www.w3.org/Graphics/SVG/1.1/DTD/svg11.dtd"><svg width="100%" height="100%" viewBox="0 0 63 57" version="1.1" xmlns="http://www.w3.org/2000/svg" xmlns:xlink="http://www.w3.org/1999/xlink" xml:space="preserve" xmlns:serif="http://www.serif.com/" style="fill-rule:evenodd;clip-rule:evenodd;stroke-linejoin:round;stroke-miterlimit:2;"><g><path d="M51.136,28.346l-0.739,0l0,-15.52c-0.003,-2.04 -1.656,-3.693 -3.696,-3.695l-31.04,0c-2.04,0.002 -3.693,1.655 -3.696,3.695l0,11.086l-0.739,0c-1.224,0 -2.217,0.993 -2.217,2.217l0,19.216c0,1.224 0.993,2.217 2.217,2.217l28.085,0c0.408,0 0.739,-0.331 0.739,-0.739c-0.003,-2.04 -1.656,-3.693 -3.695,-3.695l-2.218,0l0,-4.435l8.869,0l0,6.652c0,1.224 0.993,2.217 2.217,2.217l5.913,0c1.224,0 2.217,-0.993 2.217,-2.217l0,-14.781c0,-1.225 -0.993,-2.218 -2.217,-2.218Zm-25.867,16.999c0,0.408 -0.331,0.739 -0.739,0.739l-13.304,0c-0.408,0 -0.739,-0.331 -0.739,-0.739l0,-0.739l14.782,0l0,0.739Zm0,-2.217l-14.782,0l0,-16.999c0,-0.408 0.331,-0.739 0.739,-0.739l13.304,0c0.408,0 0.739,0.331 0.739,0.739l0,16.999Zm11.086,1.478c0.939,0.001 1.776,0.593 2.09,1.478l-11.834,0c0.087,-0.237 0.133,-0.487 0.136,-0.739l0,-0.739l9.608,0Zm-9.608,-1.478l0,-4.435l1.478,0l0,4.435l-1.478,0Zm2.956,0l0,-4.435l2.956,0l0,4.435l-2.956,0Zm13.303,-5.913l-16.259,0l0,-4.434l16.259,0l0,4.434Zm0,-6.651l0,0.739l-16.259,0l0,-5.174c-0.003,-0.35 -0.09,-0.695 -0.253,-1.006c0.011,-0.01 0.026,-0.013 0.036,-0.024l7.317,-7.317c0.284,-0.293 0.275,-0.761 -0.018,-1.045c-0.287,-0.276 -0.741,-0.276 -1.027,0l-7.317,7.317c-0.018,0.018 -0.025,0.042 -0.041,0.061c-0.286,-0.133 -0.598,-0.202 -0.914,-0.203l-11.086,0l0,-11.086c0,-1.224 0.992,-2.217 2.217,-2.217l31.04,0c1.225,0 2.218,0.993 2.218,2.217l0,15.52l-3.696,0c-1.224,0 -2.217,0.993 -2.217,2.218Zm8.869,14.781c0,0.408 -0.331,0.739 -0.739,0.739l-5.913,0c-0.408,0 -0.739,-0.331 -0.739,-0.739l0,-0.739l7.391,0l0,0.739Zm0,-2.217l-7.391,0l0,-12.564c0,-0.409 0.331,-0.739 0.739,-0.739l5.913,0c0.408,0 0.739,0.33 0.739,0.739l0,12.564Z" style="fill-rule:nonzero;"/><clipPath id="_clip1"><path d="M51.136,28.346l-0.739,0l0,-15.52c-0.003,-2.04 -1.656,-3.693 -3.696,-3.695l-31.04,0c-2.04,0.002 -3.693,1.655 -3.696,3.695l0,11.086l-0.739,0c-1.224,0 -2.217,0.993 -2.217,2.217l0,19.216c0,1.224 0.993,2.217 2.217,2.217l28.085,0c0.408,0 0.739,-0.331 0.739,-0.739c-0.003,-2.04 -1.656,-3.693 -3.695,-3.695l-2.218,0l0,-4.435l8.869,0l0,6.652c0,1.224 0.993,2.217 2.217,2.217l5.913,0c1.224,0 2.217,-0.993 2.217,-2.217l0,-14.781c0,-1.225 -0.993,-2.218 -2.217,-2.218Zm-25.867,16.999c0,0.408 -0.331,0.739 -0.739,0.739l-13.304,0c-0.408,0 -0.739,-0.331 -0.739,-0.739l0,-0.739l14.782,0l0,0.739Zm0,-2.217l-14.782,0l0,-16.999c0,-0.408 0.331,-0.739 0.739,-0.739l13.304,0c0.408,0 0.739,0.331 0.739,0.739l0,16.999Zm11.086,1.478c0.939,0.001 1.776,0.593 2.09,1.478l-11.834,0c0.087,-0.237 0.133,-0.487 0.136,-0.739l0,-0.739l9.608,0Zm-9.608,-1.478l0,-4.435l1.478,0l0,4.435l-1.478,0Zm2.956,0l0,-4.435l2.956,0l0,4.435l-2.956,0Zm13.303,-5.913l-16.259,0l0,-4.434l16.259,0l0,4.434Zm0,-6.651l0,0.739l-16.259,0l0,-5.174c-0.003,-0.35 -0.09,-0.695 -0.253,-1.006c0.011,-0.01 0.026,-0.013 0.036,-0.024l7.317,-7.317c0.284,-0.293 0.275,-0.761 -0.018,-1.045c-0.287,-0.276 -0.741,-0.276 -1.027,0l-7.317,7.317c-0.018,0.018 -0.025,0.042 -0.041,0.061c-0.286,-0.133 -0.598,-0.202 -0.914,-0.203l-11.086,0l0,-11.086c0,-1.224 0.992,-2.217 2.217,-2.217l31.04,0c1.225,0 2.218,0.993 2.218,2.217l0,15.52l-3.696,0c-1.224,0 -2.217,0.993 -2.217,2.218Zm8.869,14.781c0,0.408 -0.331,0.739 -0.739,0.739l-5.913,0c-0.408,0 -0.739,-0.331 -0.739,-0.739l0,-0.739l7.391,0l0,0.739Zm0,-2.217l-7.391,0l0,-12.564c0,-0.409 0.331,-0.739 0.739,-0.739l5.913,0c0.408,0 0.739,0.33 0.739,0.739l0,12.564Z" clip-rule="nonzero"/></clipPath><g clip-path="url(#_clip1)"><rect x="0" y="0" width="62.362" height="56.693" style="fill:#0069e1;"/></g></g></svg>