<svg width="115" height="21" viewBox="0 0 115 21" fill="none" xmlns="http://www.w3.org/2000/svg">
<path d="M0 6H3.556L7.56 15.184L11.564 6H15.12L9.016 20H6.132L0 6ZM16.3811 12.972C16.3811 11.908 16.5771 10.9187 16.9691 10.004C17.3798 9.07067 17.9304 8.268 18.6211 7.596C19.3118 6.90533 20.1144 6.364 21.0291 5.972C21.9624 5.56133 22.9611 5.356 24.0251 5.356C25.0891 5.356 26.0784 5.56133 26.9931 5.972C27.9264 6.364 28.7291 6.90533 29.4011 7.596C30.0918 8.268 30.6331 9.07067 31.0251 10.004C31.4358 10.9187 31.6411 11.908 31.6411 12.972C31.6411 14.036 31.4358 15.0347 31.0251 15.968C30.6331 16.8827 30.0918 17.6853 29.4011 18.376C28.7291 19.048 27.9264 19.5893 26.9931 20C26.0784 20.392 25.0891 20.588 24.0251 20.588C22.9611 20.588 21.9624 20.392 21.0291 20C20.1144 19.5893 19.3118 19.048 18.6211 18.376C17.9304 17.6853 17.3798 16.8827 16.9691 15.968C16.5771 15.0347 16.3811 14.036 16.3811 12.972ZM19.6571 12.972C19.6571 13.5693 19.7691 14.1387 19.9931 14.68C20.2358 15.2027 20.5531 15.66 20.9451 16.052C21.3371 16.444 21.7944 16.7613 22.3171 17.004C22.8584 17.228 23.4278 17.34 24.0251 17.34C24.6224 17.34 25.1824 17.228 25.7051 17.004C26.2464 16.7613 26.7131 16.444 27.1051 16.052C27.4971 15.66 27.8051 15.2027 28.0291 14.68C28.2718 14.1387 28.3931 13.5693 28.3931 12.972C28.3931 12.3747 28.2718 11.8147 28.0291 11.292C27.8051 10.7507 27.4971 10.284 27.1051 9.892C26.7131 9.5 26.2464 9.192 25.7051 8.968C25.1824 8.72533 24.6224 8.604 24.0251 8.604C23.4278 8.604 22.8584 8.72533 22.3171 8.968C21.7944 9.192 21.3371 9.5 20.9451 9.892C20.5531 10.284 20.2358 10.7507 19.9931 11.292C19.7691 11.8147 19.6571 12.3747 19.6571 12.972ZM34.9945 0.399999H38.2985V20H34.9945V0.399999ZM42.2067 9.248V6H43.4947V0.399999H46.7427V6H50.0187V9.248H46.7427V20H43.4947V9.248H42.2067ZM53.4568 6H64.7128L57.9648 16.752H64.7128V20H51.9728L58.6928 9.248H53.4568V6ZM66.131 18.264C66.131 17.6107 66.355 17.06 66.803 16.612C67.251 16.1453 67.8016 15.912 68.455 15.912C69.1083 15.912 69.659 16.1453 70.107 16.612C70.5736 17.06 70.807 17.6107 70.807 18.264C70.807 18.9173 70.5736 19.468 70.107 19.916C69.659 20.364 69.1083 20.588 68.455 20.588C67.8016 20.588 67.251 20.364 66.803 19.916C66.355 19.468 66.131 18.9173 66.131 18.264ZM74.503 6H77.807V6.784C78.2363 6.28 78.6936 5.916 79.179 5.692C79.6643 5.468 80.2243 5.356 80.859 5.356C81.811 5.356 82.6696 5.552 83.435 5.944C84.219 6.31733 84.9003 6.83067 85.479 7.484C86.0763 6.83067 86.7856 6.31733 87.607 5.944C88.447 5.552 89.343 5.356 90.295 5.356C91.1723 5.356 91.9936 5.524 92.759 5.86C93.543 6.196 94.215 6.65333 94.775 7.232C95.3536 7.81067 95.811 8.492 96.147 9.276C96.483 10.0413 96.651 10.8627 96.651 11.74V20H93.347V11.74C93.347 11.3293 93.263 10.9373 93.095 10.564C92.9456 10.1907 92.731 9.864 92.451 9.584C92.171 9.304 91.8443 9.08 91.471 8.912C91.0976 8.744 90.7056 8.66 90.295 8.66C89.8656 8.66 89.4643 8.744 89.091 8.912C88.7363 9.08 88.419 9.304 88.139 9.584C87.859 9.864 87.635 10.1907 87.467 10.564C87.3176 10.9373 87.243 11.3293 87.243 11.74V20H83.939V11.74C83.939 11.3107 83.855 10.9093 83.687 10.536C83.5376 10.1627 83.323 9.836 83.043 9.556C82.763 9.276 82.4363 9.06133 82.063 8.912C81.6896 8.744 81.2883 8.66 80.859 8.66C80.4296 8.66 80.0283 8.744 79.655 8.912C79.3003 9.08 78.983 9.31333 78.703 9.612C78.423 9.892 78.199 10.2187 78.031 10.592C77.8816 10.9653 77.807 11.348 77.807 11.74V20H74.503V6ZM102.864 13.196C102.883 13.7747 103.013 14.316 103.256 14.82C103.499 15.324 103.816 15.7627 104.208 16.136C104.6 16.5093 105.057 16.808 105.58 17.032C106.103 17.2373 106.653 17.34 107.232 17.34C108.203 17.34 109.033 17.1067 109.724 16.64C110.415 16.1547 110.919 15.5107 111.236 14.708H114.792C114.475 15.772 114.055 16.6773 113.532 17.424C113.009 18.1707 112.412 18.7773 111.74 19.244C111.068 19.7107 110.349 20.0467 109.584 20.252C108.819 20.476 108.035 20.588 107.232 20.588C106.168 20.588 105.169 20.392 104.236 20C103.321 19.5893 102.519 19.048 101.828 18.376C101.137 17.6853 100.587 16.8827 100.176 15.968C99.7841 15.0347 99.5881 14.036 99.5881 12.972C99.5881 11.908 99.7841 10.9187 100.176 10.004C100.587 9.07067 101.137 8.268 101.828 7.596C102.519 6.90533 103.321 6.364 104.236 5.972C105.169 5.56133 106.168 5.356 107.232 5.356C108.408 5.356 109.463 5.57067 110.396 6C111.329 6.42933 112.123 7.008 112.776 7.736C113.429 8.44533 113.933 9.276 114.288 10.228C114.661 11.18 114.857 12.1693 114.876 13.196H102.864ZM111.208 11.012C110.928 10.228 110.433 9.56533 109.724 9.024C109.015 8.464 108.184 8.184 107.232 8.184C106.28 8.184 105.449 8.464 104.74 9.024C104.031 9.56533 103.536 10.228 103.256 11.012H111.208Z" fill="#111111"/>
</svg>
