<?xml version="1.0" encoding="UTF-8" standalone="no"?><!DOCTYPE svg PUBLIC "-//W3C//DTD SVG 1.1//EN" "http://www.w3.org/Graphics/SVG/1.1/DTD/svg11.dtd"><svg width="100%" height="100%" viewBox="0 0 63 57" version="1.1" xmlns="http://www.w3.org/2000/svg" xmlns:xlink="http://www.w3.org/1999/xlink" xml:space="preserve" xmlns:serif="http://www.serif.com/" style="fill-rule:evenodd;clip-rule:evenodd;stroke-linejoin:round;stroke-miterlimit:2;"><path id="Gauge" d="M36.09,36.97c-0.017,-0.193 -0.072,-0.386 -0.168,-0.57l-12.101,-22.834c-0.357,-0.671 -1.163,-0.987 -1.894,-0.743c-0.731,0.248 -1.168,0.982 -1.029,1.73l4.715,25.32c0.037,0.201 0.115,0.381 0.222,0.546c0.045,0.216 0.101,0.431 0.175,0.647c0.76,2.167 2.838,3.627 5.169,3.627c0.602,0 1.201,-0.097 1.774,-0.292c1.38,-0.464 2.494,-1.429 3.135,-2.718c0.643,-1.29 0.734,-2.745 0.261,-4.102c-0.072,-0.213 -0.161,-0.415 -0.259,-0.611Zm-4.909,-22.488c-0.863,0 -1.561,0.687 -1.561,1.533c0,0.846 0.698,1.533 1.561,1.533c12.444,0 22.565,9.947 22.565,22.172c0,0.846 0.701,1.533 1.562,1.533c0.864,0 1.563,-0.687 1.563,-1.533c-0.001,-13.918 -11.525,-25.238 -25.69,-25.238Zm-16.144,5.604c-6.066,4.82 -9.545,11.975 -9.545,19.634c0,0.846 0.698,1.533 1.561,1.533c0.865,0 1.563,-0.687 1.563,-1.533c0,-6.727 3.056,-13.014 8.386,-17.248c0.672,-0.533 0.774,-1.499 0.232,-2.158c-0.541,-0.658 -1.524,-0.761 -2.197,-0.228Z" style="fill-rule:nonzero;"/><clipPath id="_clip1"><path d="M36.09,36.97c-0.017,-0.193 -0.072,-0.386 -0.168,-0.57l-12.101,-22.834c-0.357,-0.671 -1.163,-0.987 -1.894,-0.743c-0.731,0.248 -1.168,0.982 -1.029,1.73l4.715,25.32c0.037,0.201 0.115,0.381 0.222,0.546c0.045,0.216 0.101,0.431 0.175,0.647c0.76,2.167 2.838,3.627 5.169,3.627c0.602,0 1.201,-0.097 1.774,-0.292c1.38,-0.464 2.494,-1.429 3.135,-2.718c0.643,-1.29 0.734,-2.745 0.261,-4.102c-0.072,-0.213 -0.161,-0.415 -0.259,-0.611Zm-4.909,-22.488c-0.863,0 -1.561,0.687 -1.561,1.533c0,0.846 0.698,1.533 1.561,1.533c12.444,0 22.565,9.947 22.565,22.172c0,0.846 0.701,1.533 1.562,1.533c0.864,0 1.563,-0.687 1.563,-1.533c-0.001,-13.918 -11.525,-25.238 -25.69,-25.238Zm-16.144,5.604c-6.066,4.82 -9.545,11.975 -9.545,19.634c0,0.846 0.698,1.533 1.561,1.533c0.865,0 1.563,-0.687 1.563,-1.533c0,-6.727 3.056,-13.014 8.386,-17.248c0.672,-0.533 0.774,-1.499 0.232,-2.158c-0.541,-0.658 -1.524,-0.761 -2.197,-0.228Z" clip-rule="nonzero"/></clipPath><g clip-path="url(#_clip1)"><rect x="0" y="0" width="62.362" height="56.693" style="fill:#0069e1;"/></g></svg>