<?xml version="1.0" encoding="UTF-8" standalone="no"?><!DOCTYPE svg PUBLIC "-//W3C//DTD SVG 1.1//EN" "http://www.w3.org/Graphics/SVG/1.1/DTD/svg11.dtd"><svg width="100%" height="100%" viewBox="0 0 63 57" version="1.1" xmlns="http://www.w3.org/2000/svg" xmlns:xlink="http://www.w3.org/1999/xlink" xml:space="preserve" xmlns:serif="http://www.serif.com/" style="fill-rule:evenodd;clip-rule:evenodd;stroke-linejoin:round;stroke-miterlimit:2;"><g><path d="M40.549,13.065c-5.245,-5.246 -13.751,-5.246 -18.998,0c-4.727,4.727 -5.259,13.628 -1.248,18.977l10.747,15.52l10.747,-15.52c4.012,-5.349 3.48,-14.25 -1.248,-18.977Zm-9.368,13.803c-2.449,0 -4.434,-1.985 -4.434,-4.434c0,-2.45 1.985,-4.435 4.434,-4.435c2.449,0 4.434,1.985 4.434,4.435c0,2.449 -1.985,4.434 -4.434,4.434Z" style="fill-rule:nonzero;"/><clipPath id="_clip1"><path d="M40.549,13.065c-5.245,-5.246 -13.751,-5.246 -18.998,0c-4.727,4.727 -5.259,13.628 -1.248,18.977l10.747,15.52l10.747,-15.52c4.012,-5.349 3.48,-14.25 -1.248,-18.977Zm-9.368,13.803c-2.449,0 -4.434,-1.985 -4.434,-4.434c0,-2.45 1.985,-4.435 4.434,-4.435c2.449,0 4.434,1.985 4.434,4.435c0,2.449 -1.985,4.434 -4.434,4.434Z" clip-rule="nonzero"/></clipPath><g clip-path="url(#_clip1)"><rect x="0" y="-5.19" width="62.362" height="56.693" style="fill:#0069e1;"/></g></g></svg>