<?xml version="1.0" encoding="UTF-8"?><!DOCTYPE svg  PUBLIC '-//W3C//DTD SVG 1.1//EN'  'http://www.w3.org/Graphics/SVG/1.1/DTD/svg11.dtd'><svg clip-rule="evenodd" fill-rule="evenodd" stroke-linejoin="round" stroke-miterlimit="2" version="1.1" viewBox="0 0 420 160" xml:space="preserve" xmlns="http://www.w3.org/2000/svg"><path d="m410 34.445c0-4.95-4.013-8.963-8.963-8.963h-99.658c-5.519 0-9.993 4.474-9.993 9.993v99.06c0 5.238 4.246 9.484 9.484 9.484h99.528c2.547 0 4.989-1.012 6.79-2.813 1.8-1.8 2.812-4.242 2.812-6.789v-37.205-62.767zm-310.6 50.153c0-5.808 1.095-11.233 3.286-16.276 2.19-5.043 5.17-9.424 8.94-13.142 3.769-3.719 8.175-6.674 13.219-8.864 5.043-2.19 10.468-3.286 16.275-3.286s11.232 1.096 16.275 3.286 9.424 5.145 13.143 8.864c3.719 3.718 6.673 8.099 8.863 13.142 2.191 5.043 3.286 10.468 3.286 16.276 0 5.807-1.095 11.232-3.286 16.275-2.19 5.043-5.144 9.424-8.863 13.143-3.719 3.718-8.1 6.673-13.143 8.863-5.043 2.191-10.468 3.286-16.275 3.286s-11.232-1.095-16.275-3.286c-5.044-2.19-9.45-5.145-13.219-8.863-3.77-3.719-6.75-8.1-8.94-13.143-2.191-5.043-3.286-10.468-3.286-16.275zm284-38.053h-61.434v17.727h28.577l-36.677 58.684h69.534v-17.728h-36.83l36.83-58.683zm-324.19 76.411h-15.74l-33.468-76.411h19.408l21.854 50.125 21.853-50.125h19.408l-33.315 76.411zm159.85 0h-18.032v-106.98h18.032v106.98zm46.152-76.411h17.88v17.727h-17.88v58.684h-17.727v-58.684h-7.03v-17.727h7.03v-30.564h17.727v30.564zm-147.93 38.053c0 3.26 0.637 6.342 1.91 9.245 1.274 2.904 2.98 5.425 5.12 7.565 2.139 2.139 4.661 3.846 7.564 5.119 2.904 1.274 5.986 1.911 9.246 1.911s6.342-0.637 9.246-1.911c2.903-1.273 5.425-2.98 7.564-5.119 2.14-2.14 3.846-4.661 5.12-7.565 1.273-2.903 1.91-5.985 1.91-9.245 0-3.261-0.637-6.342-1.91-9.246-1.274-2.904-2.98-5.425-5.12-7.565-2.139-2.139-4.661-3.846-7.564-5.119-2.904-1.274-5.986-1.91-9.246-1.91s-6.342 0.636-9.246 1.91c-2.903 1.273-5.425 2.98-7.564 5.119-2.14 2.14-3.846 4.661-5.12 7.565-1.273 2.904-1.91 5.985-1.91 9.246z"/><clipPath id="a"><path d="m410 34.445c0-4.95-4.013-8.963-8.963-8.963h-99.658c-5.519 0-9.993 4.474-9.993 9.993v99.06c0 5.238 4.246 9.484 9.484 9.484h99.528c2.547 0 4.989-1.012 6.79-2.813 1.8-1.8 2.812-4.242 2.812-6.789v-37.205-62.767zm-310.6 50.153c0-5.808 1.095-11.233 3.286-16.276 2.19-5.043 5.17-9.424 8.94-13.142 3.769-3.719 8.175-6.674 13.219-8.864 5.043-2.19 10.468-3.286 16.275-3.286s11.232 1.096 16.275 3.286 9.424 5.145 13.143 8.864c3.719 3.718 6.673 8.099 8.863 13.142 2.191 5.043 3.286 10.468 3.286 16.276 0 5.807-1.095 11.232-3.286 16.275-2.19 5.043-5.144 9.424-8.863 13.143-3.719 3.718-8.1 6.673-13.143 8.863-5.043 2.191-10.468 3.286-16.275 3.286s-11.232-1.095-16.275-3.286c-5.044-2.19-9.45-5.145-13.219-8.863-3.77-3.719-6.75-8.1-8.94-13.143-2.191-5.043-3.286-10.468-3.286-16.275zm284-38.053h-61.434v17.727h28.577l-36.677 58.684h69.534v-17.728h-36.83l36.83-58.683zm-324.19 76.411h-15.74l-33.468-76.411h19.408l21.854 50.125 21.853-50.125h19.408l-33.315 76.411zm159.85 0h-18.032v-106.98h18.032v106.98zm46.152-76.411h17.88v17.727h-17.88v58.684h-17.727v-58.684h-7.03v-17.727h7.03v-30.564h17.727v30.564zm-147.93 38.053c0 3.26 0.637 6.342 1.91 9.245 1.274 2.904 2.98 5.425 5.12 7.565 2.139 2.139 4.661 3.846 7.564 5.119 2.904 1.274 5.986 1.911 9.246 1.911s6.342-0.637 9.246-1.911c2.903-1.273 5.425-2.98 7.564-5.119 2.14-2.14 3.846-4.661 5.12-7.565 1.273-2.903 1.91-5.985 1.91-9.245 0-3.261-0.637-6.342-1.91-9.246-1.274-2.904-2.98-5.425-5.12-7.565-2.139-2.139-4.661-3.846-7.564-5.119-2.904-1.274-5.986-1.91-9.246-1.91s-6.342 0.636-9.246 1.91c-2.903 1.273-5.425 2.98-7.564 5.119-2.14 2.14-3.846 4.661-5.12 7.565-1.273 2.904-1.91 5.985-1.91 9.246z"/></clipPath><g clip-path="url(#a)"><rect x="-90" y="-220" width="600" height="600" fill="url(#b)"/></g><defs><radialGradient id="b" cx="0" cy="0" r="1" gradientTransform="matrix(600,0,0,600,-90,80)" gradientUnits="userSpaceOnUse"><stop stop-color="#318eff" offset="0"/><stop stop-color="#318eff" offset=".25"/><stop stop-color="#0069e1" offset="1"/></radialGradient></defs></svg>
