<svg width="480" height="400" viewBox="0 0 480 400" fill="none" xmlns="http://www.w3.org/2000/svg">
<path fill-rule="evenodd" clip-rule="evenodd" d="M327.67 152.6C329.034 148.313 327.67 145.195 321.629 145.195H301.558C296.491 145.195 294.152 147.923 292.788 150.846C292.788 150.846 282.46 175.789 268.04 191.964C263.363 196.641 261.219 198.2 258.686 198.2C257.322 198.2 255.568 196.641 255.568 192.353V152.405C255.568 147.338 254.009 145 249.722 145H218.153C215.035 145 213.087 147.338 213.087 149.677C213.087 154.549 220.297 155.718 221.076 169.359V198.979C221.076 205.41 219.907 206.579 217.374 206.579C210.553 206.579 193.989 181.441 184.051 152.795C182.102 147.144 180.154 145 175.087 145H154.82C148.974 145 148 147.728 148 150.651C148 155.913 154.82 182.415 179.764 217.492C196.328 241.461 219.907 254.322 241.148 254.322C254.009 254.322 255.568 251.399 255.568 246.527V228.404C255.568 222.558 256.737 221.584 260.83 221.584C263.753 221.584 269.014 223.143 280.901 234.64C294.542 248.281 296.881 254.517 304.481 254.517H324.552C330.398 254.517 333.126 251.594 331.568 245.943C329.814 240.291 323.188 232.107 314.614 222.363C309.937 216.907 302.922 210.866 300.778 207.943C297.855 204.046 298.635 202.487 300.778 198.979C300.583 198.979 325.137 164.292 327.67 152.6Z" fill="white"/>
</svg>
