<svg width="480" height="400" viewBox="0 0 480 400" fill="none" xmlns="http://www.w3.org/2000/svg">
<path fill-rule="evenodd" clip-rule="evenodd" d="M276.021 216.535C274.067 215.557 264.462 210.831 262.67 210.179C260.88 209.526 259.578 209.201 258.274 211.156C256.972 213.112 253.228 217.513 252.088 218.817C250.949 220.121 249.809 220.285 247.855 219.306C245.901 218.328 239.606 216.265 232.143 209.608C226.336 204.428 222.414 198.03 221.275 196.074C220.135 194.118 221.153 193.061 222.131 192.087C223.01 191.211 224.085 189.805 225.061 188.663C226.039 187.523 226.365 186.708 227.015 185.404C227.667 184.1 227.341 182.959 226.852 181.981C226.365 181.004 222.457 171.386 220.829 167.473C219.243 163.665 217.632 164.18 216.433 164.12C215.294 164.063 213.991 164.051 212.688 164.051C211.386 164.051 209.269 164.541 207.478 166.496C205.687 168.452 200.64 173.179 200.64 182.795C200.64 192.412 207.641 201.703 208.618 203.007C209.594 204.311 222.394 224.045 241.994 232.508C246.655 234.522 250.295 235.724 253.132 236.624C257.813 238.112 262.072 237.901 265.438 237.398C269.192 236.837 276.998 232.672 278.626 228.108C280.254 223.544 280.254 219.632 279.766 218.817C279.277 218.002 277.975 217.513 276.021 216.535V216.535ZM240.372 265.211H240.346C228.683 265.206 217.245 262.072 207.267 256.151L204.894 254.743L180.296 261.195L186.861 237.212L185.317 234.754C178.81 224.406 175.374 212.447 175.38 200.166C175.394 164.333 204.549 135.18 240.398 135.18C257.757 135.185 274.074 141.955 286.346 154.239C298.616 166.523 305.369 182.853 305.363 200.219C305.348 236.054 276.193 265.211 240.372 265.211V265.211ZM295.684 144.905C280.922 130.124 261.288 121.981 240.371 121.973C197.272 121.973 162.194 157.048 162.177 200.161C162.171 213.943 165.772 227.394 172.615 239.253L161.521 279.772L202.973 268.899C214.394 275.128 227.253 278.412 240.34 278.416H240.372C283.467 278.416 318.547 243.337 318.565 200.223C318.573 179.33 310.447 159.684 295.684 144.905" fill="white"/>
</svg>
