<?xml version="1.0" encoding="UTF-8" standalone="no"?><!DOCTYPE svg PUBLIC "-//W3C//DTD SVG 1.1//EN" "http://www.w3.org/Graphics/SVG/1.1/DTD/svg11.dtd"><svg width="100%" height="100%" viewBox="0 0 300 97" version="1.1" xmlns="http://www.w3.org/2000/svg" xmlns:xlink="http://www.w3.org/1999/xlink" xml:space="preserve" xmlns:serif="http://www.serif.com/" style="fill-rule:evenodd;clip-rule:evenodd;stroke-linejoin:round;stroke-miterlimit:2;"><path d="M300,13.848c0,-3.713 -3.01,-6.722 -6.722,-6.722c-16.274,0 -57.704,0 -74.744,0c-4.139,0 -7.495,3.355 -7.495,7.494l0,74.295c0,3.929 3.185,7.113 7.113,7.113c16.634,0 57.926,0 74.647,0c1.91,0 3.741,-0.759 5.092,-2.109c1.35,-1.351 2.109,-3.182 2.109,-5.092c0,-10.272 0,-27.904 0,-27.904l0,-47.075Zm-232.95,37.614c0,-4.355 0.821,-8.424 2.464,-12.206c1.643,-3.783 3.878,-7.068 6.705,-9.857c2.827,-2.789 6.132,-5.005 9.914,-6.648c3.783,-1.643 7.852,-2.464 12.207,-2.464c4.355,0 8.424,0.821 12.206,2.464c3.783,1.643 7.068,3.859 9.857,6.648c2.789,2.789 5.005,6.074 6.648,9.857c1.643,3.782 2.464,7.851 2.464,12.206c0,4.356 -0.821,8.425 -2.464,12.207c-1.643,3.782 -3.859,7.068 -6.648,9.857c-2.789,2.789 -6.074,5.005 -9.857,6.647c-3.782,1.643 -7.851,2.465 -12.206,2.465c-4.355,0 -8.424,-0.822 -12.207,-2.465c-3.782,-1.642 -7.087,-3.858 -9.914,-6.647c-2.827,-2.789 -5.062,-6.075 -6.705,-9.857c-1.643,-3.782 -2.464,-7.851 -2.464,-12.207Zm212.996,-28.539l-46.075,0l0,13.295l21.433,0l-27.508,44.013l52.15,0l0,-13.296l-27.622,0l27.622,-44.012Zm-243.14,57.308l-11.805,0l-25.101,-57.308l14.556,0l16.39,37.594l16.39,-37.594l14.556,0l-24.986,57.308Zm119.888,0l-13.525,0l0,-80.231l13.525,0l0,80.231Zm34.614,-57.308l13.41,0l0,13.295l-13.41,0l0,44.013l-13.296,0l0,-44.013l-5.272,0l0,-13.295l5.272,0l0,-22.923l13.296,0l0,22.923Zm-110.948,28.539c0,2.445 0.478,4.757 1.433,6.935c0.955,2.177 2.235,4.068 3.839,5.673c1.605,1.605 3.496,2.884 5.674,3.84c2.177,0.955 4.489,1.432 6.934,1.432c2.445,0 4.756,-0.477 6.934,-1.432c2.178,-0.956 4.069,-2.235 5.674,-3.84c1.604,-1.605 2.884,-3.496 3.839,-5.673c0.955,-2.178 1.433,-4.49 1.433,-6.935c0,-2.445 -0.478,-4.756 -1.433,-6.934c-0.955,-2.178 -2.235,-4.069 -3.839,-5.673c-1.605,-1.605 -3.496,-2.885 -5.674,-3.84c-2.178,-0.955 -4.489,-1.433 -6.934,-1.433c-2.445,0 -4.757,0.478 -6.934,1.433c-2.178,0.955 -4.069,2.235 -5.674,3.84c-1.604,1.604 -2.884,3.495 -3.839,5.673c-0.955,2.178 -1.433,4.489 -1.433,6.934Z"/><clipPath id="_clip1"><path d="M300,13.848c0,-3.713 -3.01,-6.722 -6.722,-6.722c-16.274,0 -57.704,0 -74.744,0c-4.139,0 -7.495,3.355 -7.495,7.494l0,74.295c0,3.929 3.185,7.113 7.113,7.113c16.634,0 57.926,0 74.647,0c1.91,0 3.741,-0.759 5.092,-2.109c1.35,-1.351 2.109,-3.182 2.109,-5.092c0,-10.272 0,-27.904 0,-27.904l0,-47.075Zm-232.95,37.614c0,-4.355 0.821,-8.424 2.464,-12.206c1.643,-3.783 3.878,-7.068 6.705,-9.857c2.827,-2.789 6.132,-5.005 9.914,-6.648c3.783,-1.643 7.852,-2.464 12.207,-2.464c4.355,0 8.424,0.821 12.206,2.464c3.783,1.643 7.068,3.859 9.857,6.648c2.789,2.789 5.005,6.074 6.648,9.857c1.643,3.782 2.464,7.851 2.464,12.206c0,4.356 -0.821,8.425 -2.464,12.207c-1.643,3.782 -3.859,7.068 -6.648,9.857c-2.789,2.789 -6.074,5.005 -9.857,6.647c-3.782,1.643 -7.851,2.465 -12.206,2.465c-4.355,0 -8.424,-0.822 -12.207,-2.465c-3.782,-1.642 -7.087,-3.858 -9.914,-6.647c-2.827,-2.789 -5.062,-6.075 -6.705,-9.857c-1.643,-3.782 -2.464,-7.851 -2.464,-12.207Zm212.996,-28.539l-46.075,0l0,13.295l21.433,0l-27.508,44.013l52.15,0l0,-13.296l-27.622,0l27.622,-44.012Zm-243.14,57.308l-11.805,0l-25.101,-57.308l14.556,0l16.39,37.594l16.39,-37.594l14.556,0l-24.986,57.308Zm119.888,0l-13.525,0l0,-80.231l13.525,0l0,80.231Zm34.614,-57.308l13.41,0l0,13.295l-13.41,0l0,44.013l-13.296,0l0,-44.013l-5.272,0l0,-13.295l5.272,0l0,-22.923l13.296,0l0,22.923Zm-110.948,28.539c0,2.445 0.478,4.757 1.433,6.935c0.955,2.177 2.235,4.068 3.839,5.673c1.605,1.605 3.496,2.884 5.674,3.84c2.177,0.955 4.489,1.432 6.934,1.432c2.445,0 4.756,-0.477 6.934,-1.432c2.178,-0.956 4.069,-2.235 5.674,-3.84c1.604,-1.605 2.884,-3.496 3.839,-5.673c0.955,-2.178 1.433,-4.49 1.433,-6.935c0,-2.445 -0.478,-4.756 -1.433,-6.934c-0.955,-2.178 -2.235,-4.069 -3.839,-5.673c-1.605,-1.605 -3.496,-2.885 -5.674,-3.84c-2.178,-0.955 -4.489,-1.433 -6.934,-1.433c-2.445,0 -4.757,0.478 -6.934,1.433c-2.178,0.955 -4.069,2.235 -5.674,3.84c-1.604,1.604 -2.884,3.495 -3.839,5.673c-0.955,2.178 -1.433,4.489 -1.433,6.934Z"/></clipPath><g clip-path="url(#_clip1)"><rect x="-75" y="-176.986" width="450" height="450" style="fill:#fff;"/></g></svg>