<?xml version="1.0" encoding="UTF-8" standalone="no"?><!DOCTYPE svg PUBLIC "-//W3C//DTD SVG 1.1//EN" "http://www.w3.org/Graphics/SVG/1.1/DTD/svg11.dtd"><svg width="100%" height="100%" viewBox="0 0 512 512" version="1.1" xmlns="http://www.w3.org/2000/svg" xmlns:xlink="http://www.w3.org/1999/xlink" xml:space="preserve" xmlns:serif="http://www.serif.com/" style="fill-rule:evenodd;clip-rule:evenodd;stroke-linejoin:round;stroke-miterlimit:2;"><g><path d="M553.672,512l-595.344,0c-5.264,0 -9.531,-4.267 -9.531,-9.531l0,-492.939c0,-5.264 4.267,-9.531 9.531,-9.531l595.344,0c5.264,0 9.531,4.267 9.531,9.531l0,492.939c0,5.264 -4.267,9.531 -9.531,9.531" style="fill:#25d366;fill-rule:nonzero;"/><path d="M302.1,277.21c-2.501,-1.252 -14.796,-7.301 -17.089,-8.136c-2.292,-0.835 -3.959,-1.252 -5.627,1.251c-1.667,2.503 -6.46,8.137 -7.919,9.806c-1.458,1.669 -2.917,1.879 -5.418,0.626c-2.501,-1.252 -10.559,-3.892 -20.111,-12.413c-7.434,-6.631 -12.454,-14.821 -13.912,-17.324c-1.459,-2.504 -0.156,-3.857 1.096,-5.104c1.125,-1.121 2.501,-2.921 3.751,-4.382c1.251,-1.46 1.668,-2.503 2.501,-4.172c0.834,-1.669 0.417,-3.129 -0.209,-4.381c-0.624,-1.251 -5.626,-13.562 -7.71,-18.57c-2.03,-4.875 -4.092,-4.215 -5.627,-4.292c-1.457,-0.073 -3.126,-0.088 -4.793,-0.088c-1.667,0 -4.377,0.626 -6.669,3.129c-2.292,2.504 -8.753,8.554 -8.753,20.863c0,12.31 8.961,24.202 10.212,25.871c1.25,1.669 17.634,26.929 42.722,37.762c5.966,2.577 10.625,4.116 14.257,5.268c5.991,1.904 11.443,1.635 15.752,0.991c4.805,-0.718 14.796,-6.049 16.88,-11.891c2.084,-5.843 2.084,-10.85 1.459,-11.893c-0.625,-1.043 -2.292,-1.669 -4.793,-2.921m-45.631,62.305l-0.034,0c-14.928,-0.006 -29.569,-4.017 -42.341,-11.596l-3.038,-1.803l-31.485,8.259l8.403,-30.698l-1.977,-3.147c-8.328,-13.245 -12.726,-28.553 -12.719,-44.272c0.018,-45.867 37.337,-83.183 83.224,-83.183c22.22,0.007 43.106,8.672 58.814,24.396c15.706,15.724 24.35,36.626 24.342,58.854c-0.019,45.87 -37.338,83.19 -83.189,83.19m70.8,-153.992c-18.896,-18.919 -44.027,-29.342 -70.801,-29.353c-55.168,0 -100.068,44.897 -100.09,100.081c-0.007,17.641 4.602,34.859 13.361,50.038l-14.2,51.865l53.059,-13.918c14.619,7.973 31.078,12.177 47.83,12.182l0.041,0c55.162,0 100.065,-44.901 100.088,-100.087c0.01,-26.743 -10.391,-51.89 -29.288,-70.808" style="fill:#fff;"/></g></svg>